<svg xmlns="http://www.w3.org/2000/svg" id="play-next" x="0" y="0" version="1.1" viewBox="0 0 29 29" xml:space="preserve"><path d="M26 22.943H9a1 1 0 0 1 0-2h17a1 1 0 0 1 0 2zM26 18.943H9a1 1 0 0 1 0-2h17a1 1 0 0 1 0 2zM26 14.943H9a1 1 0 0 1 0-2h17a1 1 0 0 1 0 2zM26 10.943H13a1 1 0 0 1 0-2h13a1 1 0 0 1 0 2zM6 12.355V7.532c0-.368.401-.596.717-.408l4.052 2.412a.474.474 0 0 1 0 .815l-4.052 2.412A.475.475 0 0 1 6 12.355z"></path><path d="M3 19.943a1 1 0 0 1-1-1v-7c0-1.654 1.346-3 3-3h3a1 1 0 0 1 0 2H5c-.551 0-1 .449-1 1v7a1 1 0 0 1-1 1z"></path></svg>